<svg xmlns="http://www.w3.org/2000/svg" width="251" height="32" viewBox="0 0 251 32">
    <defs>
        <linearGradient id="f9n2k9yewa" x1="0%" x2="69.849%" y1=".48%" y2="69.9%">
            <stop offset="0%" stop-color="#0DBCA3"/>
            <stop offset="77%" stop-color="#0ED1B4"/>
        </linearGradient>
        <linearGradient id="j002l3e5bb" x1="22.944%" x2="78.033%" y1="37.216%" y2="91.527%">
            <stop offset="23%" stop-color="#50ECD5"/>
            <stop offset="100%" stop-color="#0FE5C6"/>
        </linearGradient>
    </defs>
    <g fill="none" fill-rule="evenodd">
        <g fill-rule="nonzero">
            <g>
                <path fill="#1A2C4F" d="M59.612 23.427l-.146-1.094c-1.17.954-2.659 1.43-4.166 1.334-4.005 0-6.675-3.12-6.675-7.334 0-4.213 2.67-7.4 6.675-7.4 1.637-.124 3.234.54 4.3 1.787V2.667h4.485v20.76h-4.472zm-6.208-7.067c-.037.848.28 1.673.874 2.28.595.606 1.414.94 2.264.92.835.006 1.634-.336 2.207-.943.572-.607.866-1.425.81-2.257.06-.834-.232-1.655-.805-2.266-.573-.61-1.375-.953-2.212-.947-.856-.032-1.685.299-2.283.911-.598.612-.908 1.449-.855 2.302zM66.675 4.933c0-.91.486-1.75 1.275-2.205.79-.455 1.761-.455 2.55 0 .79.455 1.275 1.295 1.275 2.205 0 1.407-1.141 2.547-2.55 2.547-1.408 0-2.55-1.14-2.55-2.547zm4.887 18.494h-4.646V9.333h4.646v14.094zM80.373 23.72c-4.005 0-6.675-3.12-6.675-7.333 0-4.214 2.67-7.4 6.675-7.4 1.633-.124 3.226.54 4.286 1.786l.147-1.44h4.352v13.88c0 4.68-4.566 6.4-8.544 6.4-1.918.015-3.816-.38-5.568-1.16l.44-3.853c1.488.642 3.094.965 4.714.947 1.629 0 4.326-.467 4.326-2.574v-.813c-1.093 1.097-2.608 1.666-4.153 1.56zm-1.936-7.36c-.036.846.278 1.669.87 2.275.591.606 1.407.94 2.255.925.836.005 1.636-.336 2.21-.943.575-.606.872-1.424.82-2.257.076-1.146-.493-2.24-1.477-2.835-.983-.597-2.217-.597-3.2 0-.984.596-1.553 1.689-1.478 2.835zM91.722 4.933c.097-1.338 1.213-2.375 2.557-2.375 1.344 0 2.46 1.037 2.556 2.375-.097 1.339-1.212 2.376-2.556 2.376s-2.46-1.037-2.557-2.376zm4.886 18.494h-4.646V9.333h4.646v14.094zM105.3 13.067v4.573c0 2.4 2.136 2.187 4.379 1.667l.32 3.76c-1.207.415-2.474.636-3.751.653-3.245 0-5.594-1.56-5.594-5.333v-5.334h-2.257v-3.72h2.257V4.8h4.499v4.533h4.005v3.734H105.3zM121.788 23.427l-.146-1.494c-1.035 1.203-2.567 1.862-4.153 1.787-3.778 0-6.555-3.12-6.555-7.347 0-4.226 2.777-7.386 6.555-7.386 1.59-.073 3.125.585 4.166 1.786l.147-1.493h4.5v14.147h-4.514zm-6.261-7.054c-.076 1.137.489 2.22 1.464 2.812.975.591 2.198.591 3.173 0 .975-.591 1.54-1.675 1.464-2.812.076-1.136-.489-2.22-1.464-2.811-.975-.591-2.198-.591-3.173 0-.975.59-1.54 1.675-1.464 2.811zM133.738 23.427L129.091 23.427 129.091 2.667 133.738 2.667zM143.337 29.333v-20h4.366l.147 1.494c1.063-1.287 2.687-1.974 4.352-1.84 4.005 0 6.676 3.16 6.676 7.4s-2.67 7.333-6.676 7.333c-1.5.077-2.977-.398-4.152-1.333v6.946h-4.713zm4.58-12.96c-.056.835.239 1.654.814 2.262.576.608 1.379.948 2.216.938.847.016 1.664-.319 2.255-.925.592-.606.906-1.43.87-2.275.075-1.146-.495-2.24-1.478-2.835-.983-.596-2.217-.596-3.2 0-.984.596-1.553 1.689-1.478 2.835zM174.579 9.333v8.24c0 3.587-2.764 6.2-6.943 6.2s-6.81-2.666-6.81-6.12v-8.32h4.647v7.88c0 1.23.998 2.227 2.23 2.227 1.231 0 2.23-.997 2.23-2.227v-7.88h4.646zM185.486 8.987c.586.008 1.167.107 1.723.293l-.294 4.053c-.576-.198-1.18-.302-1.79-.306-1.748 0-3.243.96-3.243 3.586v6.814h-4.647V9.333h4.34l.146 1.934c.687-1.443 2.167-2.34 3.765-2.28zM188.81 29.333v-20h4.367l.146 1.494c1.05-1.26 2.636-1.943 4.273-1.84 4.005 0 6.609 3.16 6.609 7.4s-2.67 7.333-6.61 7.333c-1.504.079-2.986-.396-4.165-1.333v6.946h-4.62zm4.594-12.96c-.056.832.237 1.65.81 2.257.572.607 1.372.949 2.207.943.85.02 1.67-.314 2.264-.92.594-.606.91-1.432.873-2.28.054-.853-.257-1.69-.855-2.301-.597-.613-1.427-.944-2.282-.912-.835-.006-1.635.336-2.207.943-.573.607-.866 1.425-.81 2.257v.013zM221.014 16.36c.092 3.093-1.702 5.933-4.538 7.181-2.835 1.248-6.145.655-8.368-1.5-2.224-2.154-2.918-5.44-1.755-8.308 1.164-2.868 3.952-4.745 7.05-4.746 2.005-.089 3.957.652 5.397 2.048 1.44 1.395 2.241 3.321 2.214 5.325zm-10.615 0c-.074 1.122.482 2.192 1.445 2.776.962.584 2.17.584 3.132 0 .963-.584 1.52-1.654 1.445-2.776.075-1.122-.482-2.192-1.445-2.776-.962-.584-2.17-.584-3.132 0-.963.584-1.52 1.654-1.445 2.776zM228.303 23.72c-1.892.035-3.774-.295-5.54-.973l.453-3.667c1.501.565 3.084.884 4.687.947 1.548 0 2.136-.227 2.136-.827s-.427-.76-1.91-.987L226.796 18c-2.951-.453-4.273-1.8-4.273-4.293 0-2.88 2.537-4.72 6.502-4.72 1.658-.037 3.305.277 4.833.92l-.347 3.6c-1.368-.45-2.793-.7-4.232-.747-1.589 0-2.337.293-2.337.907 0 .613.574.773 2.19 1.026l1.335.214c2.737.44 4.005 1.773 4.005 4.186.094 2.827-2.31 4.627-6.168 4.627zM249.745 22.453c-1.652.846-3.484 1.28-5.34 1.267-5.247 0-8.398-2.92-8.398-7.36-.11-1.966.614-3.888 1.997-5.292s3.295-2.16 5.266-2.081c4.099 0 7.743 2.666 6.675 8.56h-9.359c.227 1.64 1.99 2.253 3.885 2.253 1.584.025 3.157-.255 4.633-.827l.641 3.48zm-3.872-7.626c-.03-.62-.312-1.201-.78-1.609-.47-.407-1.084-.607-1.703-.551-1.366-.166-2.61.798-2.79 2.16h5.273z" transform="translate(-34 -24) translate(34 24)"/>
                <path fill="url(#f9n2k9yewa)" d="M22.937 9.08c-.825-.177-1.666-.266-2.51-.267h-.28C13.959 8.961 8.979 13.94 8.838 20.12c-.006.093-.006.187 0 .28v2.427C3.661 21.554.017 16.924 0 11.6V0h11.602c5.438.011 10.144 3.781 11.335 9.08z" transform="translate(-34 -24) translate(34 24)"/>
                <path fill="url(#j002l3e5bb)" d="M32.043 20.413C32.035 26.815 26.837 32 20.427 32H8.825v-9.16c.872.223 1.77.335 2.67.333h.16c6.297-.005 11.443-5.02 11.603-11.306V11.6c.006-.847-.084-1.693-.267-2.52 5.295 1.207 9.05 5.91 9.052 11.333z" transform="translate(-34 -24) translate(34 24)"/>
                <path fill="#0ED1B4" d="M23.204 11.6v.28c-.16 6.286-5.305 11.301-11.602 11.307h-.16c-.9.001-1.798-.11-2.67-.334v-2.44c-.007-.093-.007-.186 0-.28.14-6.18 5.12-11.158 11.308-11.306h.28c.844 0 1.685.09 2.51.266.206.82.318 1.662.334 2.507z" transform="translate(-34 -24) translate(34 24)"/>
                <path fill="#0FE5C6" d="M23.204 11.6v.28c-.16 6.286-5.305 11.301-11.602 11.307h-.16c-.9.001-1.798-.11-2.67-.334v-2.44c-.007-.093-.007-.186 0-.28.14-6.18 5.12-11.158 11.308-11.306h.28c.844 0 1.685.09 2.51.266.206.82.318 1.662.334 2.507z" style="mix-blend-mode:soft-light" transform="translate(-34 -24) translate(34 24)"/>
            </g>
        </g>
    </g>
</svg>
