<svg xmlns="http://www.w3.org/2000/svg" width="216" height="66" viewBox="0 0 216 66">
    <g fill="none" fill-rule="evenodd">
        <g fill="#FFF" fill-rule="nonzero">
            <g>
                <g>
                    <path d="M98.174 27.094l-.178-1.34c-1.424 1.17-3.234 1.753-5.067 1.634-4.872 0-8.12-3.824-8.12-8.988 0-5.163 3.248-9.069 8.12-9.069 1.991-.157 3.937.657 5.23 2.19V1.634h5.489v25.46h-5.474zm-7.584-8.66c-.05 1.038.331 2.051 1.051 2.798.72.746 1.716 1.159 2.75 1.14 1.017.002 1.989-.42 2.685-1.167.696-.747 1.052-1.75.985-2.772 0-2.076-1.673-3.758-3.736-3.758s-3.735 1.682-3.735 3.758zM106.766 4.429c-.013-1.275.741-2.431 1.91-2.925 1.168-.494 2.517-.228 3.413.673.896.902 1.16 2.26.67 3.435-.492 1.175-1.64 1.935-2.908 1.921-.829.038-1.636-.277-2.223-.868-.587-.59-.9-1.402-.862-2.236zm5.944 22.665h-5.652V9.804h5.652v17.29zM123.429 27.454c-4.873 0-8.12-3.824-8.12-8.988s3.247-9.07 8.12-9.07c1.986-.152 3.924.662 5.213 2.19l.178-1.781h5.295v17.044c0 5.72-5.554 7.828-10.394 7.828-2.339.026-4.655-.459-6.789-1.422l.536-4.723c1.815.787 3.774 1.182 5.75 1.16 1.965 0 5.245-.572 5.245-3.153v-.997c-1.324 1.34-3.16 2.037-5.034 1.912zm-2.355-9.02c-.045 1.037.337 2.047 1.056 2.793.72.745 1.712 1.159 2.744 1.144 1.02.007 1.997-.413 2.696-1.16.7-.748 1.058-1.754.99-2.778.093-1.405-.6-2.744-1.796-3.475-1.196-.73-2.697-.73-3.893 0-1.197.73-1.89 2.07-1.797 3.475zM137.233 4.429c-.013-1.274.74-2.429 1.906-2.924 1.166-.495 2.514-.232 3.411.666.897.899 1.166 2.253.68 3.43-.485 1.175-1.63 1.939-2.895 1.932-.83.038-1.639-.277-2.228-.867-.59-.59-.907-1.401-.874-2.237zm5.944 22.665h-5.652V9.804h5.652v17.29zM153.75 14.397v5.605c0 2.941 2.598 2.68 5.327 2.043l.406 4.608c-1.475.51-3.021.78-4.58.8-3.947 0-6.805-1.911-6.805-6.536V14.38h-2.745V9.805h2.745V4.249h5.473v5.556h4.872v4.64l-4.693-.048zM173.774 27.094l-.178-1.83c-1.256 1.487-3.131 2.297-5.067 2.19-4.596 0-7.974-3.824-7.974-9.004s3.378-9.054 7.974-9.054c1.933-.092 3.802.716 5.067 2.19l.178-1.781h5.474v17.29h-5.474zm-7.616-8.644c-.092 1.393.595 2.721 1.78 3.445 1.186.725 2.675.725 3.86 0 1.187-.724 1.873-2.052 1.782-3.445.091-1.393-.595-2.722-1.781-3.446-1.186-.725-2.675-.725-3.86 0-1.186.724-1.873 2.053-1.781 3.446zM188.391 27.094L182.739 27.094 182.739 1.634 188.391 1.634zM85.637 66.673V42.161h5.31l.179 1.83c1.292-1.523 3.228-2.336 5.213-2.19 4.872 0 8.12 3.873 8.12 9.07s-3.248 8.988-8.12 8.988c-1.824.086-3.618-.494-5.05-1.634v8.497l-5.652-.049zm5.57-15.884c-.068 1.024.291 2.03.99 2.778.7.747 1.677 1.167 2.697 1.16 1.032.015 2.025-.4 2.744-1.144.719-.746 1.1-1.756 1.056-2.794.092-1.405-.6-2.744-1.797-3.475-1.196-.73-2.697-.73-3.893 0-1.196.73-1.889 2.07-1.797 3.475zM123.64 42.112v10.18c0 4.413-3.362 7.6-8.462 7.6s-8.266-3.269-8.266-7.485V42.112h5.652v9.674c0 1.507 1.214 2.73 2.712 2.73 1.498 0 2.712-1.223 2.712-2.73v-9.674h5.652zM136.908 41.752c.713.012 1.42.134 2.095.36l-.34 4.902c-.701-.243-1.436-.37-2.177-.375-2.128 0-3.946 1.176-3.946 4.412v8.334h-5.652V42.112h5.327l.178 2.37c.845-1.72 2.61-2.787 4.515-2.73zM140.952 66.673V42.161h5.31l.18 1.83c1.3-1.521 3.24-2.333 5.229-2.19 4.872 0 8.12 3.873 8.12 9.07s-3.248 8.988-8.12 8.988c-1.83.089-3.63-.492-5.067-1.634v8.497l-5.652-.049zm5.587-15.884c-.068 1.021.29 2.025.985 2.772.696.746 1.668 1.169 2.685 1.167 1.035.019 2.032-.394 2.755-1.14.723-.745 1.107-1.758 1.062-2.799.065-1.046-.313-2.07-1.04-2.82-.727-.751-1.736-1.157-2.777-1.118-1.018-.007-1.994.414-2.69 1.162-.698.747-1.053 1.754-.98 2.776zM180.125 50.79c.112 3.79-2.07 7.27-5.52 8.8-3.448 1.53-7.474.803-10.18-1.838-2.705-2.64-3.548-6.667-2.133-10.182 1.415-3.515 4.806-5.816 8.575-5.818 2.439-.108 4.814.8 6.566 2.51 1.751 1.71 2.725 4.072 2.692 6.527zm-12.993 0c.159 1.995 1.868 3.5 3.855 3.393 1.987-.107 3.527-1.788 3.473-3.79-.055-2-1.684-3.594-3.674-3.591-.998.041-1.936.49-2.598 1.242-.662.752-.99 1.744-.91 2.745h-.146zM189.024 59.81c-2.297.049-4.581-.357-6.723-1.193l.552-4.494c1.826.692 3.75 1.084 5.7 1.16 1.884 0 2.599-.278 2.599-1.013 0-.735-.52-.915-2.323-1.21l-1.624-.26c-3.589-.556-5.197-2.19-5.197-5.263 0-3.53 3.086-5.785 7.91-5.785 2.016-.044 4.02.34 5.879 1.128l-.423 4.412c-1.664-.55-3.397-.858-5.148-.915-1.932 0-2.842.36-2.842 1.128 0 .768.698.931 2.664 1.242l1.624.261c3.329.556 4.872 2.173 4.872 5.131.065 3.465-2.859 5.67-7.52 5.67zM215.074 58.257c-1.999 1.073-4.23 1.634-6.496 1.634-6.383 0-10.215-3.578-10.215-9.02-.135-2.41.747-4.765 2.43-6.486 1.682-1.72 4.008-2.647 6.405-2.55 4.985 0 9.42 3.267 8.12 10.49h-11.482c.276 2.01 2.42 2.762 4.726 2.762 1.995.008 3.972-.387 5.814-1.16l.698 4.33zm-4.71-9.347c-.036-.76-.38-1.472-.95-1.971-.57-.5-1.317-.744-2.07-.676-1.659-.194-3.167.982-3.395 2.647h6.416zM41.219 66.346H17.865V42.782c0-9.537 5.713-18.133 14.472-21.777 8.759-3.643 18.837-1.615 25.53 5.138 6.692 6.753 8.68 16.899 5.034 25.702-3.645 8.803-12.204 14.528-21.682 14.501zM23.094 61.02H41.22c10.01 0 18.124-8.165 18.124-18.237S51.23 24.545 41.22 24.545c-10.01 0-18.125 8.165-18.125 18.237v18.237z" transform="translate(-776 -898) translate(0 857) translate(776 40)"/>
                    <path d="M23.419 48.436C10.492 48.418.018 37.878 0 24.872V1.307h23.419c8.367 0 16.098 4.492 20.281 11.783 4.184 7.29 4.184 16.273 0 23.564-4.183 7.29-11.914 11.782-20.281 11.782zM5.294 6.635v18.237c0 10.072 8.115 18.237 18.125 18.237s18.124-8.165 18.124-18.237S33.43 6.635 23.42 6.635H5.294z" transform="translate(-776 -898) translate(0 857) translate(776 40)"/>
                </g>
            </g>
        </g>
    </g>
</svg>
